<?xml version="1.0" encoding="utf-8"?>
<svg viewBox="0 0 500 180" xmlns="http://www.w3.org/2000/svg">
  <rect width="500" height="180" style="fill: rgb(145, 142, 247);"/>
  <rect x="37.1" y="51.208" width="73.772" height="20.2" rx="6" ry="6" style="fill: rgb(255, 255, 255);"/>
  <rect x="33.825" y="120.805" width="80.066" height="20.2" rx="6" ry="6" style="fill: rgb(255, 255, 255);"/>
  <polygon style="fill: rgb(255, 255, 255);" points="109.40599822998047 69.32000732421875 59.900001525878906 123 35.20899963378906 122.95098876953125 84.7 69.3"/>
  <ellipse style="fill: rgb(255, 255, 255);" cx="170.423" cy="96.2" rx="46.006" ry="46.988"/>
  <ellipse style="fill: rgb(144, 142, 247);" cx="170.51" cy="96.137" rx="22.61" ry="27.58"/>
  <rect x="234.982" y="74.3" width="23.679" height="66.612" rx="6" ry="6" style="fill: rgb(255, 255, 255);"/>
  <rect x="292.8" y="74.3" width="23.7" height="66.6" rx="6" ry="6" style="fill: rgb(255, 255, 255);"/>
  <path style="fill: rgb(255, 255, 255);" d="M 292.791 81.515 C 292.623 65.36 258.67 65.368 258.676 81.632 L 234.958 80.524 C 234.958 38.502 316.458 38.502 316.458 80.524 L 292.791 81.515 Z"/>
  <rect x="340.721" y="49.428" width="23.656" height="91.526" rx="6" ry="6" style="fill: rgb(255, 255, 255);"/>
  <ellipse style="fill: rgb(255, 255, 255);" cx="352.498" cy="28.359" rx="11.547" ry="11.547"/>
  <rect x="415.381" y="49.674" width="50.794" height="20.209" rx="6" ry="6" style="fill: rgb(255, 255, 255);"/>
  <rect x="415.359" y="120.618" width="50.8" height="20.167" rx="6" ry="6" style="fill: rgb(255, 255, 255);"/>
  <path style="fill: rgb(255, 255, 255);" d="M 423.501 120.64 C 398.903 120.687 399.048 69.845 423.548 69.845 L 420.477 49.717 C 370.494 49.722 370.494 140.73 420.41 140.767 L 423.501 120.64 Z"/>
</svg>